<?xml version="1.0" encoding="UTF-8" standalone="no"?>
<svg
   xmlns:dc="http://purl.org/dc/elements/1.1/"
   xmlns:cc="http://creativecommons.org/ns#"
   xmlns:rdf="http://www.w3.org/1999/02/22-rdf-syntax-ns#"
   xmlns:svg="http://www.w3.org/2000/svg"
   xmlns="http://www.w3.org/2000/svg"
   xmlns:sodipodi="http://sodipodi.sourceforge.net/DTD/sodipodi-0.dtd"
   xmlns:inkscape="http://www.inkscape.org/namespaces/inkscape"
   width="210mm"
   height="297mm"
   viewBox="0 0 210 297"
   version="1.1"
   id="svg8"
   inkscape:version="1.0.1 (3bc2e813f5, 2020-09-07)"
   sodipodi:docname="overlay_m55.svg">
  <defs
     id="defs2">
    <clipPath
       clipPathUnits="userSpaceOnUse"
       id="clipPath155">
      <path
         id="path157"
         style="fill:#ff0000;fill-opacity:1;fill-rule:nonzero;stroke:none"
         d="m 169.75391,215.16406 v 751.7461 H 583.75586 V 215.16406 Z M 347.23438,254.625 c 0.23147,0.0211 0.46326,0.0296 0.69335,0.0625 0.9801,0.13984 0.67927,0.12802 1.45313,0.30078 0.76018,0.16972 1.52442,0.29922 2.29297,0.42383 0.8301,0.12446 0.61164,0.0911 1.61328,0.23828 0.22464,0.033 0.44728,0.0841 0.67383,0.0996 1.08286,0.0738 0.85667,-0.008 1.80468,-0.006 0.31932,3.8e-4 0.63786,0.0187 0.95704,0.0273 0.18453,0.0134 0.37073,0.019 0.55468,0.0391 1.13823,0.12279 0.25525,0.0441 1.07422,0.16601 0.37746,0.0562 0.76066,0.0699 1.13672,0.13477 0.22585,0.039 0.44805,0.0992 0.67188,0.14844 0.1326,0.0407 0.26106,0.0912 0.39648,0.12109 0.30545,0.0677 0.63227,0.0953 0.94336,0.13086 0.36962,0.0424 0.72467,0.0965 1.0957,0.0977 0.34684,-0.0287 0.48465,0.0103 0.56446,0.10742 0.85302,-0.0391 1.70373,0.0186 2.55078,0.12109 0.61235,0.0777 1.22464,-4.1e-4 1.83594,-0.0137 1.24982,-0.0269 -1.27052,1.31062 -0.0215,1.26172 0.0158,-6.2e-4 0.0627,-0.004 0.0469,-0.002 -0.10337,0.0113 -0.20669,0.0201 -0.31055,0.0254 -0.56738,0.0298 -1.13633,0.0247 -1.70313,-0.0176 -0.80454,-0.0985 -1.6067,-0.16028 -2.41797,-0.12891 -0.22442,0.0352 -0.33299,0.008 -0.47265,-0.0957 -0.0459,0.002 0.0197,-0.002 -0.0918,0.004 -0.41501,-0.0101 -0.80375,-0.0573 -1.21679,-0.10547 -0.48891,-0.0569 -0.6515,-0.0621 -1.17774,-0.17773 -0.10273,-0.0226 -0.20059,-0.0636 -0.30078,-0.0957 -0.17562,-0.0412 -0.34956,-0.0944 -0.52734,-0.125 -0.40819,-0.0702 -0.82275,-0.0876 -1.23243,-0.14844 -0.76747,-0.11399 0.16546,-0.0263 -0.93554,-0.14844 -0.16543,-0.0185 -0.33205,-0.0246 -0.49805,-0.0371 -0.29439,-0.009 -0.58827,-0.0269 -0.88281,-0.0273 -1.13632,-0.002 -0.6774,0.0864 -2.02735,-0.008 -0.227,-0.0158 -0.45063,-0.0644 -0.67578,-0.0977 -0.33069,-0.0486 -0.66157,-0.0974 -0.99218,-0.14648 -0.21302,-0.0316 -0.4257,-0.0636 -0.63868,-0.0957 -0.8037,-0.13069 -1.59961,-0.26741 -2.39453,-0.44531 -0.66834,-0.14959 -0.40997,-0.14573 -1.26172,-0.26758 -0.2301,-0.0329 -0.46381,-0.0434 -0.69531,-0.0644 v 0.002 c -1.24485,-0.11317 -1.12963,-1.37097 0.11524,-1.25781 z m 16.06445,2.4082 c 0.0397,0.11429 0.0929,0.24875 0.19531,0.40821 0.0405,0.0632 0.0498,-0.16694 0.002,-0.22461 -0.0689,-0.0828 -0.1323,-0.12807 -0.19726,-0.1836 z m -0.74414,0.73047 c 0.015,0.0227 0.0207,0.0519 0.0391,0.0723 0.004,0.004 0.0334,9e-4 0.0449,0.004 -0.0206,-0.0163 -0.0597,-0.0544 -0.084,-0.0762 z m 1.00586,0.28906 c 0.85511,-0.0102 1.01022,0.95376 -0.0352,1.27539 -0.96374,0.29654 -0.80705,0.25087 -1.86523,0.57032 -0.2109,0.0637 -0.41708,0.14489 -0.63282,0.18945 -0.40995,0.0847 -1.43385,0.2328 -1.92773,0.24414 -0.53285,0.0121 -1.06664,-0.009 -1.59961,-0.0137 -1.35005,-0.0544 -1.17022,-0.0332 -2.61523,-0.15039 -0.28002,-0.0227 -0.55944,-0.0631 -0.83985,-0.0801 -0.21218,-0.0129 -0.42413,-0.0143 -0.63672,-0.0176 -0.001,10e-4 -9.1e-4,0.003 -0.002,0.004 -7.8e-4,0.001 6.9e-4,-0.005 0,-0.004 -0.0867,-0.001 -0.17304,-0.007 -0.25977,-0.008 -0.22818,-0.002 -0.3219,-0.0312 -0.38086,-0.0469 0.0194,0.0165 0.0402,0.0314 0.0586,0.0488 0.47186,0.21641 1.57513,0.47505 0.78125,0.74805 -0.15666,0.0539 -0.30309,0.16042 -0.46875,0.16211 -0.62019,0.006 -0.86798,-0.50372 -0.98828,-1.01563 -0.0178,-0.0759 0.0159,-0.15475 0.0234,-0.23242 0.32775,-1.22247 0.0489,-0.21068 0.0625,-0.1914 0.05,0.0703 0.12212,0.1214 0.1875,0.17773 0.0131,-0.18739 0.026,-0.43584 -0.0371,-0.86133 0.85416,-0.1406 1.73683,-0.013 2.59179,0.0566 0.4625,0.0377 0.92543,0.0743 1.38867,0.10157 0.38263,0.0223 0.76548,0.0314 1.14844,0.0469 0.49297,0.006 0.9856,0.0266 1.47852,0.0176 0.38126,-0.007 1.36792,-0.13314 1.67187,-0.19531 0.21469,-0.0439 0.41914,-0.12611 0.62891,-0.18946 1.05485,-0.31843 0.89888,-0.27223 1.86133,-0.56836 0.14934,-0.046 0.28409,-0.0669 0.40625,-0.0684 z m -10.1543,2.01758 c 0,0 0.002,0 0.002,0 0.049,-0.0677 0.0512,-0.13219 0.0312,-0.18945 -0.0682,0.0592 -0.13223,0.0718 -0.0215,0.0469 -0.004,0.0478 -0.037,0.17201 -0.0117,0.14258 z m -0.74219,-0.21484 c -0.0141,0.008 -0.051,0.0168 -0.0586,0.0254 0.0183,0.0137 0.0346,0.0291 0.0527,0.043 0.002,-0.0229 0.004,-0.0455 0.006,-0.0684 z" />
    </clipPath>
  </defs>
  <sodipodi:namedview
     id="base"
     pagecolor="#ffffff"
     bordercolor="#666666"
     borderopacity="1.0"
     inkscape:pageopacity="0.0"
     inkscape:pageshadow="2"
     inkscape:zoom="0.7"
     inkscape:cx="-131.25606"
     inkscape:cy="677.89589"
     inkscape:document-units="mm"
     inkscape:current-layer="layer1"
     inkscape:document-rotation="0"
     showgrid="false"
     inkscape:window-width="1920"
     inkscape:window-height="1017"
     inkscape:window-x="-8"
     inkscape:window-y="-8"
     inkscape:window-maximized="1" />
  <metadata
     id="metadata5">
    <rdf:RDF>
      <cc:Work
         rdf:about="">
        <dc:format>image/svg+xml</dc:format>
        <dc:type
           rdf:resource="http://purl.org/dc/dcmitype/StillImage" />
        <dc:title></dc:title>
      </cc:Work>
    </rdf:RDF>
  </metadata>
  <g
     inkscape:label="Layer 1"
     inkscape:groupmode="layer"
     id="layer1">
    <path
       id="path0"
       style="fill-rule:evenodd;stroke-width:2.20742"
       transform="matrix(0.26458333,0,0,0.26458333,8.6934524,-10.96131)"
       d="m 384.9375,215.16406 c -0.14039,0.0364 -0.27948,0.0751 -0.41992,0.11133 0.25076,0.0272 0.43491,0.0511 0.67969,0.0781 -0.0873,-0.0633 -0.17934,-0.125 -0.25977,-0.18946 z m -0.28711,46.04883 c -0.18941,-0.003 -0.37799,0.002 -0.56055,0.0273 -0.11754,0.0166 -0.23011,0.0619 -0.34765,0.0801 -0.54788,0.0848 -0.50787,0.0673 -0.99414,0.0488 -0.82077,-0.0258 -1.63751,-0.0583 -2.45899,-0.0254 -1.00592,0.0404 -2.01015,0.16979 -3.01562,0.2207 -0.39214,0.0211 -0.78333,0.0505 -1.17578,0.0645 -1.0211,0.0367 -2.04493,-0.0246 -3.06641,0.006 -0.0497,-10e-4 -0.58574,-0.004 -0.69336,-0.0274 -0.16272,0.0269 -0.79702,0.0983 -0.22851,0.0645 -0.15859,0.0178 -0.3173,0.0429 -0.47657,0.0527 -0.14231,0.009 -0.28521,-0.002 -0.42773,0.002 -0.27467,0.008 -0.54799,0.017 -0.82227,0.0332 -1.03874,0.0617 -2.07857,0.1744 -3.12109,0.11132 -1.42516,-0.011 -2.84841,-0.0262 -4.27344,0.01 -3.18509,0.0793 1.46949,0.0232 -2.85156,0.0937 -0.37517,0.006 -0.74977,4e-5 -1.125,0 -0.54452,0.011 -1.08857,0.0128 -1.63281,0.0332 -0.29197,0.0108 -0.58339,0.0355 -0.875,0.0547 l -0.11524,2.55664 -7.20703,3.52344 c -5.38469,2.6303 -7.67138,4.77655 -9.03711,8.47461 l -1.82422,4.95312 -0.0879,-4.42773 c -0.24378,-12.43802 -14.75363,-8.25135 -83.19922,24.0039 l -36.44336,17.17188 -9.77343,14.40039 -9.77344,14.39844 -1.52735,26.66797 c -2.73587,47.68678 -3.58043,96.26367 -1.73046,99.46289 1.44145,2.49014 1.2477,2.91992 -1.30469,2.91992 -6.9524,0 -11.29707,46.83638 -9.12109,98.36328 0.0607,1.55614 0.009,25.54169 -0.11915,53.30273 -0.23421,49.65037 0.2282,57.79493 3.28516,57.79493 1.6618,0 1.55407,0.74498 -3.17187,21.93554 -4.09483,18.35244 -3.76662,17.07506 -9.41993,36.79883 -15.59655,54.41617 -2.16354,99.49523 45.96875,154.26172 78.15921,88.93644 223.29616,91.37609 303.37891,5.09961 56.74643,-61.13734 68.93258,-102.16269 50.49219,-169.97656 -12.77329,-46.97322 -12.42438,-43.55706 -13.35156,-130.91211 -1.11553,-105.28075 -2.38654,-126.66797 -7.52344,-126.66797 -1.24626,0 -1.74896,-5.88326 -1.7168,-20.16602 0.0265,-11.09219 -0.40976,-40.00627 -0.96289,-64.2539 L 551.2168,347.6582 540.80078,332.84766 530.38672,318.03711 499.68359,303.89258 c -16.88878,-7.77832 -41.87204,-18.75093 -55.51757,-24.38086 l -24.8086,-10.23828 -4.70312,3.09961 c -3.40392,2.24177 -4.44949,3.84203 -3.7793,5.79297 0.51613,1.50298 0.20183,2.69531 -0.70703,2.69531 -0.89972,0 -1.64472,-2.06929 -1.65625,-4.59766 -0.0265,-4.10356 -0.84663,-4.97372 -7.65234,-8.0625 l -7.62696,-3.46289 v -3.21484 c -0.21812,-0.008 -0.4352,-0.0281 -0.64648,-0.0899 -0.11944,-0.0188 -0.23881,-0.0464 -0.35938,-0.0566 -0.099,-0.009 -0.19942,0.002 -0.29883,0.002 -0.74071,0.002 -1.48006,0.002 -2.2207,-0.006 -0.64618,-0.005 -1.28989,0.0188 -1.93555,0.0332 -0.18992,-0.0113 -0.38095,-0.0178 -0.57031,-0.0352 -0.84468,-0.0785 0.0668,-0.0424 -0.91797,-0.11132 -0.25795,-0.0181 -0.51687,-0.003 -0.77539,-0.0117 -0.0986,-0.003 -0.19627,-0.0103 -0.29492,-0.0156 -0.18283,-0.006 -0.37308,-0.0165 -0.5625,-0.0195 z M 372.28125,453.3125 c 1.42476,-0.0486 3.04851,1.0492 4.79687,3.35742 5.31359,7.01824 2.24044,22.33008 -4.48242,22.33008 -5.20573,0 -6.68996,-3.43418 -5.76953,-13.3418 0.74253,-7.98413 2.73508,-12.25284 5.45508,-12.3457 z m 180.9375,90.28711 c 0.075,0.0309 0.1589,0.29829 0.24609,0.83008 0.34885,2.12723 0.35653,5.94894 0.0195,8.49219 h -0.004 c -0.34167,2.54312 -0.62524,0.80505 -0.63477,-3.86524 -0.006,-3.50277 0.14803,-5.54975 0.37305,-5.45703 z m -211.92383,1.2168 c 1.33457,0.23345 1.57802,23.3691 0.13672,34.66601 -1.28079,10.02441 -1.36569,9.47362 -1.5332,-9.90625 -0.0989,-11.28533 0.32725,-22.11202 0.94726,-24.05859 0.16075,-0.50453 0.31116,-0.72532 0.44922,-0.70117 z m 214.5293,15.58398 c 1.24358,0.0866 2.6172,2.25873 2.64648,4.88086 0.0189,1.72596 -0.38723,1.68991 -2.45312,-0.21875 -1.36347,-1.26312 -1.96446,-3.05388 -1.33789,-3.99219 0.33111,-0.49518 0.73,-0.69879 1.14453,-0.66992 z m -2.26953,9.17578 c 0.46155,0 0.3621,22.75617 -0.22071,50.57031 -0.58034,27.81207 -1.55226,51.02929 -2.1582,51.5918 -0.60382,0.56088 -0.93747,-8.66311 -0.74219,-20.49609 0.64286,-39.18656 2.2673,-81.66602 3.1211,-81.66602 z m -166.9375,275.31836 c 1.62624,-0.20131 6.05715,2.80175 13.1582,8.94336 8.25162,7.1413 11.81836,12.44806 11.81836,17.58984 0,5.15218 -1.52118,5.48597 -5.42773,1.19141 -1.95791,-2.15055 -6.31954,-5.06341 -9.69141,-6.46875 -5.35948,-2.23544 -6.33242,-3.38454 -7.71875,-9.10156 -0.87458,-3.59826 -2.04542,-8.04605 -2.60547,-9.88672 -0.43254,-1.4223 -0.2724,-2.17607 0.4668,-2.26758 z m -18.69727,11.74414 c 0.56098,-0.0858 2.30748,1.16289 5.24414,3.75195 3.51636,3.10152 6.95782,7.5604 7.64649,9.90821 1.6526,5.64049 1.26143,5.82233 -4.89453,2.30469 -3.71373,-2.12289 -5.47814,-4.33297 -6.07032,-7.59375 -0.45891,-2.52847 -1.34187,-5.87159 -1.95703,-7.42774 -0.23395,-0.59044 -0.22334,-0.90436 0.0312,-0.94336 z m 13.85938,4.73633 c 1.93166,-0.32664 18.921,11.9033 30.19726,21.97656 9.49569,8.48311 10.89657,12.5843 6.34961,18.58789 -2.37796,3.13962 -2.53985,3.15845 -5.52148,0.66797 -4.27382,-3.57286 -28.8984,-3.24255 -56.83203,0.76367 -11.65542,1.67063 -21.52187,3.03907 -21.92578,3.03907 -0.40166,0 1.72271,-2.653 4.72265,-5.89258 6.02738,-6.51303 7.88942,-12.61324 6.42969,-21.06446 -1.16379,-6.72751 -1.38638,-6.69728 8.39844,-1.1289 l 7.84375,4.46289 -0.73243,6.50586 -0.73437,6.50195 2.26172,-4.95312 c 1.5493,-3.39443 2.03642,-7.91649 1.54297,-14.35938 l -0.71875,-9.40625 8.92383,5.86719 c 9.59423,6.3072 10.41514,8.26183 7.52539,17.9082 -1.3451,4.48778 -1.27618,4.69368 0.74609,2.22266 4.18881,-5.12255 5.02179,-23.30192 1.42969,-31.17774 -0.14547,-0.31883 -0.10568,-0.48769 0.0937,-0.52148 z m -33.04102,2.35156 4.81055,2.58985 c 2.6488,1.42219 5.42876,4.06293 6.18164,5.86523 2.18053,5.21805 1.6649,5.87131 -3.3457,4.25586 -4.83387,-1.56026 -5.06797,-1.86068 -6.69532,-8.70703 z"
       clip-path="url(#clipPath155)" />
    <path
       style="fill:#706e6e;fill-rule:evenodd;stroke-width:0.714286"
       d="m 388.2666,924.11074 c -33.75299,-3.46101 -66.78766,-15.14271 -94.17912,-33.30353 -17.38718,-11.52788 -33.62502,-26.71489 -48.73855,-45.58445 -25.49845,-31.83533 -38.32257,-59.07219 -41.69278,-88.55034 -2.00678,-17.55274 -0.0542,-33.70646 7.19659,-59.53644 3.37314,-12.01641 9.60305,-38.32451 11.30296,-47.7309 0.7631,-4.22258 0.72417,-4.48303 -0.91522,-6.12242 -1.43951,-1.43951 -1.78228,-2.67115 -2.15207,-7.73266 -0.24192,-3.31125 -0.51195,-39.77044 -0.60007,-81.02044 -0.16797,-78.62632 0.0478,-85.97371 3.04804,-103.77978 1.76327,-10.46484 3.68938,-15.07633 6.5347,-15.6454 1.75049,-0.3501 2.01274,-0.66689 1.59401,-1.9255 -2.36076,-7.09599 -1.90943,-47.9195 1.12191,-101.47859 l 1.4538,-25.68641 7.98006,-11.81359 c 4.38904,-6.49747 8.79842,-12.99796 9.79862,-14.44553 1.31545,-1.90382 3.3006,-3.31773 7.17569,-5.11086 2.94643,-1.36341 16.76786,-7.84114 30.71429,-14.39497 47.60219,-22.36965 67.50249,-30.33413 75.84101,-30.35303 3.5359,-0.008 4.24491,0.23185 5.53572,1.87285 1.05513,1.34138 1.48041,2.92137 1.48041,5.5 0,4.08211 0.6268,3.7985 2.42831,-1.09876 1.49548,-4.06535 4.59894,-6.91626 11.08419,-10.18218 2.95925,-1.49025 5.01744,-3.00814 5.24169,-3.86568 0.3498,-1.33763 1.12871,-1.42423 14.79607,-1.64512 19.05924,-0.30803 21.44974,-0.12754 21.44974,1.61953 0,1.00652 1.78715,2.23574 6.90963,4.75249 3.8003,1.86715 7.14764,3.87696 7.43854,4.46625 0.2909,0.58928 0.79763,2.67857 1.12608,4.64285 0.7032,4.20547 2.69232,5.10663 2.81147,1.27372 0.0852,-2.73957 0.96802,-3.90593 5.11748,-6.76083 l 3.12822,-2.15227 15.12715,6.24185 c 26.81853,11.06601 90.04912,39.25328 94.53076,42.14042 0.85057,0.54794 6.07974,7.46055 11.62039,15.36136 l 10.0739,14.36511 0.73225,30.47961 c 0.40275,16.76378 0.96079,45.34403 1.2401,63.51165 l 0.50785,33.03203 1.90567,1.76704 c 2.23169,2.06934 3.10246,5.68747 4.13204,17.16888 1.08418,12.09031 2.0956,52.22813 2.88897,114.64727 0.75027,59.02861 1.2478,70.9111 3.57861,85.46764 1.26797,7.91884 2.72736,13.97757 10.35708,42.99798 16.17624,61.52804 5.93879,100.56836 -40.51194,154.49156 -16.16374,18.76398 -29.07272,30.50942 -45.64532,41.53113 -26.52821,17.64274 -60.00505,29.34047 -93.39461,32.63464 -8.52842,0.8414 -32.78365,0.8142 -41.17432,-0.0462 z m -2.85714,-61.32036 c 21.51692,-2.87581 34.04343,-3.83578 45.82918,-3.5121 9.2341,0.25359 10.27697,0.42362 13.79599,2.24935 l 3.80679,1.97503 1.6589,-1.55846 c 0.9124,-0.85715 2.17954,-2.92172 2.81588,-4.58794 1.09351,-2.86333 1.08047,-3.20019 -0.23774,-6.14238 -2.32854,-5.19716 -16.16197,-17.52891 -30.39438,-27.09491 -7.14844,-4.80467 -8.77983,-5.26877 -7.97235,-2.26798 2.50718,9.3173 2.13804,21.77363 -0.81446,27.48313 -1.57379,3.04336 -1.70846,2.24131 -0.46966,-2.79697 1.19764,-4.87087 0.94148,-6.93882 -1.19619,-9.65642 -1.35555,-1.7233 -13.03462,-10.11629 -15.2716,-10.9747 -0.91159,-0.34981 -1.04544,1.03604 -0.9487,9.82242 0.0901,8.18731 -0.12241,10.72881 -1.06462,12.72968 l -1.17724,2.5 0.37521,-5.02625 0.37522,-5.02626 -7.41226,-4.07784 c -4.07674,-2.24282 -7.91961,-4.07922 -8.53971,-4.08089 -0.96375,-0.003 -1.11932,1.16366 -1.07142,8.03267 0.0663,9.50417 -0.7831,11.78312 -7.07159,18.97412 -4.30318,4.92075 -4.79041,6.0688 -2.33668,5.50574 0.88393,-0.20283 8.67857,-1.3139 17.32143,-2.46904 z m 8.66999,-27.5458 c 0.22597,-0.58888 -0.34662,-2.59431 -1.27243,-4.45652 -1.30455,-2.62403 -2.69351,-4.01124 -6.1733,-6.16548 -2.46951,-1.5288 -4.67537,-2.59428 -4.90192,-2.36774 -0.54048,0.54049 1.09608,7.44881 2.35337,9.93414 0.6921,1.36809 1.98804,2.2539 4.36844,2.98596 4.39288,1.35097 5.13064,1.36011 5.62584,0.0696 z m 20.41318,-3.98518 c -0.29861,-3.53896 -3.13635,-7.86206 -8.12279,-12.37454 -4.45222,-4.02901 -6.91834,-5.1607 -5.98869,-2.74816 0.26492,0.6875 0.92922,3.16495 1.47623,5.50543 0.54702,2.34048 1.5962,5.07262 2.33154,6.07142 1.52375,2.06973 8.66308,6.60634 9.77168,6.20933 0.40402,-0.14468 0.64343,-1.34324 0.53203,-2.66348 z m 30.18942,0.82993 c 1.4416,-6.56355 -5.50198,-16.05429 -18.64901,-25.49015 -4.62865,-3.32208 -7.41058,-4.03227 -7.40749,-1.89105 0.003,2.17997 3.5925,14.74995 4.69025,16.42533 0.5796,0.88459 3.28244,2.73065 6.00631,4.10237 2.72387,1.37172 6.58464,3.94361 8.57948,5.71531 4.28487,3.80558 6.12669,4.11475 6.78046,1.13819 z M 585.68472,607.3143 c 1.28393,-35.01076 1.81619,-78.5829 0.96636,-79.10812 -1.31821,-0.8147 -2.60338,25.99062 -3.47321,72.44228 -0.46995,25.09697 -0.17492,32.33172 1.17481,28.8087 0.31628,-0.82553 0.91569,-10.78982 1.33204,-22.14286 z m -210.5526,-75.50505 c 0.7921,-9.92207 0.4996,-26.83576 -0.49183,-28.43992 -1.18652,-1.91983 -1.74777,2.1615 -2.18797,15.9109 -0.49255,15.38462 0.12117,27.31785 1.25049,24.31473 0.34104,-0.90688 0.98423,-6.21046 1.42931,-11.78571 z m 216.34877,-8.59755 c 0,-1.45625 -0.54029,-2.87826 -1.38357,-3.6414 -2.86096,-2.58915 -4.10416,1.44484 -1.34907,4.37751 2.1118,2.24789 2.73264,2.08065 2.73264,-0.73611 z m -4.67339,-18.80552 -0.56736,-2.73376 -0.68376,2.98053 c -0.37844,1.64964 -0.43041,4.20123 -0.11639,5.71428 l 0.56736,2.73376 0.68376,-2.98053 c 0.37844,-1.64964 0.43041,-4.20123 0.11639,-5.71428 z M 409.6129,435.56851 c 2.46185,-2.92575 3.52893,-7.26196 3.10396,-12.61333 -0.38385,-4.83353 -1.97713,-8.21205 -4.90014,-10.39062 -4.62017,-3.4435 -7.82922,1.85907 -8.32177,13.75072 -0.28527,6.88739 -0.18345,7.66044 1.24663,9.46428 2.27695,2.87205 6.35877,2.77494 8.87132,-0.21105 z"
       id="path159"
       transform="scale(0.26458333)" />
    <path
       style="fill:none;stroke:#000000;stroke-width:0.264583px;stroke-linecap:butt;stroke-linejoin:miter;stroke-opacity:1"
       d="M 60.670183,114.79226 61.447044,80.966171"
       id="path161" />
    <path
       style="fill:none;stroke:#000000;stroke-width:0.264583px;stroke-linecap:butt;stroke-linejoin:miter;stroke-opacity:1"
       d="m 61.356901,80.880192 5.171776,-7.61969 28.084736,-12.590319 3.593954,2.867399 0.682358,62.346368"
       id="path163" />
    <path
       style="fill:none;stroke:#000000;stroke-width:0.264583px;stroke-linecap:butt;stroke-linejoin:miter;stroke-opacity:1"
       d="m 158.49083,166.50891 -4.14268,-0.26727 0.80665,-26.50259 1.34118,-1.30596"
       id="path165" />
    <path
       style="fill:none;stroke:#000000;stroke-width:0.264583px;stroke-linecap:butt;stroke-linejoin:miter;stroke-opacity:1"
       d="m 155.08034,114.68385 1.67324,2.3802 0,20.98066"
       id="path167" />
    <circle
       id="path169"
       style="fill:#000000;stroke:none;stroke-width:0.264583"
       cx="155.08034"
       cy="114.68385"
       r="0.39687499" />
    <path
       style="fill:none;stroke:#000000;stroke-width:0.264583px;stroke-linecap:butt;stroke-linejoin:miter;stroke-opacity:1"
       d="m 155.08034,114.68385 v 22.82632 l 1.67324,0.53454"
       id="path171" />
    <path
       style="fill:none;stroke:#000000;stroke-width:0.264583px;stroke-linecap:butt;stroke-linejoin:miter;stroke-opacity:1"
       d="m 158.49083,166.50891 -1.60362,-28.0633"
       id="path173" />
    <path
       style="fill:none;stroke:#000000;stroke-width:0.264583px;stroke-linecap:butt;stroke-linejoin:miter;stroke-opacity:1"
       d="m 57.830357,170.84524 -0.377976,-26.64733 4.91369,0.37798"
       id="path175" />
    <path
       style="fill:none;stroke:#000000;stroke-width:0.264583px;stroke-linecap:butt;stroke-linejoin:miter;stroke-opacity:1"
       d="m 62.366069,144.57589 -3.212796,26.26935 h -1.322916"
       id="path177" />
    <path
       style="fill:none;stroke:#000000;stroke-width:0.264583px;stroke-linecap:butt;stroke-linejoin:miter;stroke-opacity:1"
       d="m 60.670183,114.79226 -2.46185,4.45923 -0.566964,23.24553 3.590774,1.32292 z m 46.522687,-5.81464 c 0,0 -0.40353,-0.0572 -0.6053,0.28037 -0.18842,0.31523 -0.42673,1.10428 -0.56525,1.67802 -0.299,1.23843 -0.46844,3.24155 0.16537,4.34672 0.33754,0.58857 1.14518,0.47737 1.79538,0.28349 0.73691,-0.21972 1.07956,-1.33533 1.03944,-2.03162 -0.0426,-0.73919 0.0897,-1.30157 0.0911,-1.89 0.001,-0.46768 -0.0804,-0.96922 -0.39822,-1.46454 -0.11547,-0.17998 -0.36205,-0.72185 -0.7176,-0.97994 -0.34723,-0.25204 -0.80493,-0.2225 -0.80493,-0.2225 z m 9.97975,16.51048 -0.37798,-63.877981 2.87588,-1.200784 29.81906,13.296022 5.04665,7.317897 0.54411,33.660596"
       id="path181"
       sodipodi:nodetypes="ccccccssssssssccccccc" />
    <path
       style="fill:#706e6e;fill-rule:evenodd;stroke-width:0.126269"
       d=""
       id="path183"
       transform="scale(0.26458333)" />
    <path
       style="fill:#706e6e;fill-rule:evenodd;stroke-width:0.126269"
       d="m 373.16567,543.67528 c -0.0925,-0.24208 -0.18687,-3.61339 -0.28049,-10.02434 -0.22697,-15.54209 0.18329,-27.8577 0.99197,-29.77838 0.17792,-0.42256 0.20942,-0.44353 0.36016,-0.23981 1.0239,1.38379 1.27963,18.43676 0.44448,29.63938 -0.22447,3.01111 -1.15735,10.54856 -1.32648,10.71769 -0.0276,0.0276 -0.11295,-0.11393 -0.18964,-0.31454 z"
       id="path185"
       transform="scale(0.26458333)" />
    <path
       style="fill:#706e6e;fill-rule:evenodd;stroke-width:0.505076"
       d="m 392.95367,924.1653 c -28.20071,-1.82671 -61.65221,-11.96192 -86.65929,-26.25624 -25.4362,-14.53958 -46.34792,-33.57742 -66.88031,-60.8873 -17.54631,-23.33811 -28.53954,-45.52272 -33.28757,-67.17514 -1.2062,-5.50064 -2.57644,-15.13532 -2.57644,-18.11593 0,-1.1942 -0.13258,-2.30389 -0.29462,-2.46593 -0.38448,-0.38447 -0.38448,-9.96959 0,-10.35406 0.16204,-0.16205 0.29567,-1.44999 0.29695,-2.8621 0.006,-6.44723 2.73115,-20.6799 7.14057,-37.291 1.38256,-5.20834 2.38514,-9.6778 2.22796,-9.93212 -0.15718,-0.25432 -0.0677,-0.53863 0.19873,-0.63181 0.54538,-0.19069 5.79963,-21.74982 8.25781,-33.88325 0.9748,-4.81154 1.84484,-7.95495 2.20179,-7.95495 0.76591,0 0.30225,3.41462 7.02205,-51.71351 3.98785,-32.71565 5.67761,-48.08966 5.32436,-48.4429 -0.39413,-0.39413 -8.78342,-1.31254 -16.8445,-1.84402 -0.38097,-0.0251 -0.55548,-4.57066 -0.17547,-4.57066 0.11183,0 2.89606,1.02226 6.18718,2.27171 3.29112,1.24943 6.25973,2.27221 6.59691,2.27284 0.46595,10e-4 0.55233,-1.96832 0.35999,-8.20636 -0.53363,-17.30704 -1.76044,-88.26281 -1.75409,-101.45214 0.004,-7.60734 0.57743,-37.92365 1.27504,-67.3696 0.69761,-29.44595 1.2705,-55.35636 1.27308,-57.5787 l 0.005,-4.04061 9.08356,-13.38452 c 4.99596,-7.36148 9.71862,-13.88693 10.4948,-14.501 0.77617,-0.61406 17.14708,-8.17126 36.37978,-16.79378 l 34.96856,-15.67731 h 23.47755 23.47756 l -0.0211,6.69226 c -0.064,20.2698 2.32186,223.25904 2.62996,223.75755 0.20168,0.32633 0.53762,0.42241 0.74652,0.21351 0.32395,-0.32396 -1.58007,-214.67728 -2.01189,-226.49644 l -0.15224,-4.16688 h 34.42487 34.42488 l 0.33515,57.9575 c 1.04212,180.21473 0.95096,171.34713 1.76162,171.34713 0.67081,0 0.71943,-6.06519 0.42407,-52.90674 -0.18348,-29.09871 -0.48477,-80.69225 -0.66955,-114.65232 l -0.33595,-61.74557 h 23.13669 23.13669 l 37.42845,16.69819 37.42844,16.69819 3.1146,4.1362 c 1.71302,2.27492 6.20189,8.54154 9.97525,13.92583 6.4006,9.13315 6.86089,9.94601 6.86412,12.12183 0.002,1.28272 0.45627,29.43927 1.00971,62.57012 0.77967,46.67404 0.87103,60.45444 0.40573,61.19949 -0.46732,0.7483 -0.46082,1.12989 0.0293,1.72046 0.4917,0.59248 0.61683,8.93609 0.57056,38.048 -0.0819,51.52442 -0.13443,48.14826 0.74954,48.14826 0.41139,0 0.88826,0.55888 1.0597,1.24197 0.17145,0.68309 0.64011,1.51451 1.04147,1.84761 0.61947,0.51412 0.48658,0.85653 -0.87939,2.26586 l -1.60914,1.66021 -0.65311,9.49789 c -0.84357,12.26788 -1.87658,43.4232 -1.6505,49.77885 0.0964,2.7091 0.005,4.92512 -0.2036,4.92449 -0.4985,-0.002 -0.4226,36.8285 0.0786,38.10973 0.36326,0.92872 0.41625,0.93432 0.88675,0.0936 0.45144,-0.80668 1.04874,-0.85949 6.10336,-0.53964 6.43673,0.40729 6.17097,0.15738 6.1827,5.81385 0.004,1.8288 0.12938,3.44757 0.27908,3.59727 0.1497,0.1497 0.35372,1.94904 0.45338,3.99852 0.32517,6.68764 2.30515,16.5333 7.19915,35.79868 7.96847,31.36816 8.98675,36.12984 10.47698,48.9924 0.89535,7.72802 1.03878,23.20012 0.27859,30.05204 -3.391,30.56449 -17.26421,57.54738 -47.91174,93.18657 -8.41211,9.78222 -21.94786,23.14749 -29.86247,29.48635 -22.96482,18.39271 -48.58675,30.91567 -78.53936,38.38686 -6.95428,1.73463 -17.46009,3.67231 -25.00128,4.61114 -7.41043,0.92258 -31.54153,1.37654 -40.91117,0.76959 z m -9.34392,-60.81366 c 19.61297,-2.67998 27.09676,-3.37239 39.90103,-3.6917 13.49384,-0.33653 17.39997,0.0977 22.20874,2.46901 l 3.26918,1.6121 1.3269,-1.23779 c 2.8033,-2.61513 5.07742,-9.38244 3.34678,-9.95929 -0.33601,-0.11203 -0.47435,-0.42467 -0.30742,-0.69473 1.65722,-2.68145 -23.78243,-24.89077 -35.77593,-31.23311 -3.19552,-1.68989 -3.60595,-1.18774 -2.67319,3.27042 1.72912,8.26426 1.40767,19.0338 -0.70859,23.7407 l -0.90884,2.02142 0.0604,-2.1437 c 0.0332,-1.17905 0.23089,-2.145 0.43923,-2.14657 0.20835,0 0.37796,-1.30976 0.37692,-2.90707 -0.003,-3.64185 -0.99897,-5.363 -4.89981,-8.46189 -4.10159,-3.2584 -11.70351,-8.33189 -12.48421,-8.33189 -0.50238,0 -0.71507,2.34926 -0.92595,10.22779 -0.15057,5.62529 -0.51841,10.79601 -0.81741,11.49049 -0.44312,1.02919 -0.53108,0.52088 -0.47571,-2.74883 l 0.0679,-4.01152 -7.27781,-3.94207 c -7.17313,-3.88535 -9.20095,-4.57442 -9.6924,-3.29375 -0.1374,0.35805 -0.28562,3.41805 -0.32937,6.79994 -0.12398,9.58357 -1.01535,12.09067 -6.70081,18.84697 -3.14222,3.73408 -4.44482,5.55251 -4.44482,6.20502 0,0.51517 -0.48896,0.5679 17.42513,-1.87995 z m 10.6685,-27.8243 c 0.35845,-0.93409 -0.73338,-4.31395 -1.39356,-4.31395 -0.27264,0 -0.38044,-0.18653 -0.23954,-0.41452 0.90794,-1.46907 -6.26475,-7.52054 -10.03581,-8.467 l -1.42517,-0.35769 0.35333,2.22046 c 0.65568,4.12047 1.91165,7.6111 3.25837,9.05582 2.25232,2.41618 8.82346,3.99404 9.48238,2.27688 z m 20.30211,-3.50467 c 0.27026,-3.29138 -2.22586,-7.5617 -7.22597,-12.362 -4.15389,-3.98788 -6.49248,-5.61528 -7.13952,-4.96823 -0.37822,0.3782 1.11327,6.72353 2.40711,10.24068 0.82317,2.23769 3.96875,6.21294 3.96875,5.01555 0,-0.244 0.29036,-0.0465 0.64525,0.43886 0.88527,1.21067 5.49524,3.88248 6.42581,3.72424 0.4862,-0.0827 0.81528,-0.83111 0.91857,-2.0891 z m 29.93588,1.12733 c 0.93276,-1.74287 0.255,-6.55241 -1.33506,-9.47387 -4.2301,-7.77206 -18.9523,-20.55509 -23.19426,-20.13911 -1.44213,0.14137 -1.51825,0.25835 -1.37094,2.10653 0.23051,2.89221 3.51486,14.00798 4.57037,15.46831 0.50197,0.69448 3.33393,2.74004 6.29325,4.54569 2.95931,1.80564 6.88215,4.47623 8.71742,5.93464 3.62855,2.88343 5.37884,3.31492 6.31922,1.55781 z M 374.5646,539.49123 c 0.37937,-3.84941 -0.31192,-4.10973 -0.84175,-0.31697 -0.1827,1.30783 -0.36947,-4.44065 -0.41503,-12.77441 -0.0581,-10.61906 -0.23763,-14.88648 -0.60021,-14.26384 -0.63966,1.09844 -0.41648,30.61025 0.23917,31.62757 0.7083,1.099 1.2222,-0.2581 1.61782,-4.27235 z m 0.98044,-10.69226 c 0.48394,-9.02204 0.0455,-24.76255 -0.7109,-25.5189 -1.04839,-1.04838 -1.70225,0.44063 -1.87484,4.26953 -0.11823,2.62258 -0.0433,3.25733 0.25763,2.18274 0.23338,-0.83338 0.47171,-2.42437 0.52963,-3.53554 l 0.10531,-2.0203 0.51097,1.76777 c 0.31115,1.07642 0.43876,7.24911 0.32633,15.78363 -0.10155,7.70873 -0.0343,14.01587 0.14935,14.01587 0.1837,0 0.50163,-3.12516 0.70652,-6.9448 z m 33.99712,-91.87957 c 2.35421,-1.51328 3.25565,-4.79212 3.31139,-12.04459 l 0.0506,-6.58812 -1.74234,-2.88107 c -2.58463,-4.27386 -5.97762,-5.58049 -8.34462,-3.21349 -2.25707,2.25707 -4.00168,10.42184 -3.72691,17.44189 0.19017,4.85841 0.98394,6.67112 3.50849,8.01226 1.45853,0.77483 5.21969,0.38108 6.94336,-0.72688 z"
       id="path187"
       transform="scale(0.26458333)" />
  </g>
</svg>
